<?xml version="1.0" encoding="iso-8859-1"?>
<!-- Uploaded to: SVG Repo, www.svgrepo.com, Generator: SVG Repo Mixer Tools -->
<!DOCTYPE svg PUBLIC "-//W3C//DTD SVG 1.1//EN" "http://www.w3.org/Graphics/SVG/1.1/DTD/svg11.dtd">
<svg fill="#000000" height="800px" width="800px" version="1.1" id="Capa_1" xmlns="http://www.w3.org/2000/svg" xmlns:xlink="http://www.w3.org/1999/xlink" 
	 viewBox="0 0 225.167 225.167" xml:space="preserve">
<path d="M213.131,177.455v-38.832c0-22.461-18.274-40.735-40.735-40.735H52.772c-22.461,0-40.735,18.274-40.735,40.735v38.831
	c-2.792,1.092-4.772,3.802-4.772,6.981v17.756c0,3.884,2.952,7.078,6.735,7.461v8.014c0,4.142,3.358,7.5,7.5,7.5h8.381
	c4.142,0,7.5-3.358,7.5-7.5v-7.976h150.405v7.976c0,4.142,3.358,7.5,7.5,7.5h8.381c4.142,0,7.5-3.358,7.5-7.5v-8.014
	c3.783-0.383,6.735-3.578,6.735-7.461v-17.756C217.902,181.257,215.922,178.547,213.131,177.455z M29,164.573
	c0-0.452,0.367-0.819,0.819-0.819h33.228h34.229h33.771h34.229h30.072c0.452,0,0.819,0.367,0.819,0.819v12.362H29V164.573z
	 M58.518,144.225v-10.154c0-2.498,2.032-4.529,4.529-4.529h34.229c2.497,0,4.529,2.032,4.529,4.529v10.154
	c0,2.498-2.032,4.529-4.529,4.529H63.047C60.55,148.754,58.518,146.723,58.518,144.225z M126.518,144.225v-10.154
	c0-2.498,2.032-4.529,4.529-4.529h34.229c2.497,0,4.529,2.032,4.529,4.529v10.154c0,2.498-2.032,4.529-4.529,4.529h-34.229
	C128.55,148.754,126.518,146.723,126.518,144.225z M121.162,41.802c2.483,10.069-0.972,19.855-10.269,29.086
	c-6.438,6.392-10.094,12.773-11.7,16.008c-1.767,3.558-5.333,5.769-9.308,5.769c-2.197,0-4.302-0.682-6.085-1.973
	c-2.926-2.118-9.127-6.067-17.801-8.735c-12.521-3.851-20.129-10.909-22.612-20.978c-1.442-5.85-1.005-12.263,1.198-17.596
	c2.863-6.928,8.515-11.749,15.913-13.572c2.395-0.591,4.79-0.89,7.118-0.89c3.772,0,6.971,0.767,9.569,1.8
	c3.068-3.542,7.706-6.924,14.339-8.56c1.969-0.486,3.945-0.732,5.875-0.732C110.274,21.429,118.742,31.99,121.162,41.802z
	 M180.506,35.56c-3.292,6.778-9.628,10.627-18.833,11.44c-5.244,0.463-9.219,1.944-11.122,2.785
	c-1.196,0.528-2.461,0.795-3.762,0.795c0,0,0,0,0,0c-4.253,0-7.96-2.878-9.014-6.999c-0.516-2.016-1.812-6.058-4.689-10.463
	c-5.054-7.736-5.947-15.097-2.655-21.876C132.948,6.056,138.858,0,147.223,0c2.6,0,5.169,0.607,7.637,1.806
	c3.782,1.837,6.264,4.256,7.893,6.632c0.375-0.023,0.759-0.036,1.153-0.036c3.011,0,6.009,0.714,8.91,2.123
	c5.108,2.48,8.479,6.881,9.49,12.391C183.062,27.039,182.406,31.647,180.506,35.56z"/>
</svg>